<svg xmlns="http://www.w3.org/2000/svg" viewBox="0 0 48 48" role="img" aria-label="WeCom">
  <path fill="none" stroke="#2f9be6" stroke-linecap="round" stroke-linejoin="round" stroke-width="4.8" d="M8.5 21.8c0-8.4 7.9-15.2 17.6-15.2s17.6 6.8 17.6 15.2c0 8.5-7.9 15.3-17.6 15.3-2.2 0-4.3-.3-6.2-1l-7.7 4.1 1.6-7.2c-3.3-2.8-5.3-6.7-5.3-11.2Z"/>
  <path fill="#fff" d="M40.8 26.1a9 9 0 0 1-9 9h-2.7a9 9 0 0 1-9-9 9 9 0 0 1 9-9h2.7a9 9 0 0 1 9 9Z"/>
  <path fill="#2f9be6" d="M37.4 29.1c2.6-.5 5.1.6 5.5 2.6.4 1.9-1.4 3.9-4 4.4-2.7.6-5.1-.6-5.5-2.5-.4-2 1.4-4 4-4.5Z"/>
  <path fill="#29df33" d="M34.1 20.3c2.2-1.6 4.8-1.5 6 .1 1.1 1.6.3 4.1-1.9 5.7-2.2 1.5-4.8 1.5-5.9-.1-1.2-1.6-.4-4.2 1.8-5.7Z"/>
  <path fill="#ffd627" d="M26.4 27.6c.8-2.6 2.9-4.2 4.8-3.6 1.9.5 2.7 3.1 1.9 5.6-.8 2.6-3 4.2-4.8 3.6-1.9-.6-2.7-3.1-1.9-5.6Z"/>
  <path fill="#e87013" d="M29.7 35.5c1.6-2.2 4.1-3 5.7-1.9 1.6 1.2 1.7 3.8.1 6-1.5 2.2-4.1 3-5.7 1.9-1.6-1.2-1.6-3.8-.1-6Z"/>
</svg>
